<svg width="32" height="32" viewBox="0 0 32 32" fill="none" xmlns="http://www.w3.org/2000/svg">
<g id="skill-icons:instagram">
<g clip-path="url(#clip0_52_188)">
<g id="Group">
<path id="Vector" d="M24.5 0H7.5C3.35786 0 0 3.35786 0 7.5V24.5C0 28.6421 3.35786 32 7.5 32H24.5C28.6421 32 32 28.6421 32 24.5V7.5C32 3.35786 28.6421 0 24.5 0Z" fill="url(#paint0_radial_52_188)"/>
<path id="Vector_2" d="M24.5 0H7.5C3.35786 0 0 3.35786 0 7.5V24.5C0 28.6421 3.35786 32 7.5 32H24.5C28.6421 32 32 28.6421 32 24.5V7.5C32 3.35786 28.6421 0 24.5 0Z" fill="url(#paint1_radial_52_188)"/>
<path id="Vector_3" d="M16.0009 6C13.2851 6 12.9442 6.0119 11.8776 6.0604C10.813 6.1092 10.0863 6.2777 9.4505 6.52499C8.7927 6.78039 8.2348 7.12209 7.679 7.67808C7.1227 8.23398 6.781 8.79187 6.5248 9.44937C6.2768 10.0854 6.1081 10.8124 6.0602 11.8764C6.0125 12.9431 6 13.2841 6 16C6 18.7159 6.012 19.0557 6.0604 20.1223C6.1094 21.1868 6.2779 21.9135 6.525 22.5493C6.7806 23.2071 7.1223 23.765 7.6783 24.3208C8.234 24.8771 8.7919 25.2196 9.4492 25.475C10.0855 25.7223 10.8123 25.8908 11.8767 25.9396C12.9434 25.9881 13.284 26 15.9997 26C18.7158 26 19.0556 25.9881 20.1222 25.9396C21.1868 25.8908 21.9143 25.7223 22.5506 25.475C23.2081 25.2196 23.7652 24.8771 24.3208 24.3208C24.8771 23.765 25.2187 23.2071 25.475 22.5496C25.7208 21.9135 25.8896 21.1866 25.9396 20.1225C25.9875 19.0559 26 18.7159 26 16C26 13.2841 25.9875 12.9433 25.9396 11.8766C25.8896 10.8121 25.7208 10.0855 25.475 9.44967C25.2187 8.79187 24.8771 8.23398 24.3208 7.67808C23.7646 7.12189 23.2083 6.78019 22.55 6.52509C21.9125 6.2777 21.1854 6.1091 20.1208 6.0604C19.0541 6.0119 18.7145 6 15.9978 6H16.0009ZM15.1038 7.80208C15.3701 7.80168 15.6672 7.80208 16.0009 7.80208C18.671 7.80208 18.9874 7.81168 20.0418 7.85958C21.0168 7.90418 21.546 8.06708 21.8985 8.20398C22.3652 8.38518 22.6979 8.60187 23.0477 8.95197C23.3977 9.30197 23.6143 9.63526 23.796 10.102C23.9329 10.454 24.096 10.9832 24.1404 11.9581C24.1883 13.0123 24.1987 13.3289 24.1987 15.9977C24.1987 18.6665 24.1883 18.9832 24.1404 20.0373C24.0958 21.0122 23.9329 21.5414 23.796 21.8935C23.6148 22.3602 23.3977 22.6925 23.0477 23.0423C22.6977 23.3923 22.3654 23.6089 21.8985 23.7902C21.5464 23.9277 21.0168 24.0902 20.0418 24.1348C18.9876 24.1827 18.671 24.1931 16.0009 24.1931C13.3307 24.1931 13.0142 24.1827 11.9601 24.1348C10.9851 24.0898 10.4559 23.9269 10.1031 23.79C9.6365 23.6087 9.3031 23.3921 8.9531 23.0421C8.6031 22.6921 8.3865 22.3596 8.2048 21.8927C8.0679 21.5406 7.9048 21.0114 7.8604 20.0365C7.8125 18.9823 7.8029 18.6657 7.8029 15.9952C7.8029 13.3248 7.8125 13.0098 7.8604 11.9556C7.905 10.9807 8.0679 10.4515 8.2048 10.099C8.3861 9.63226 8.6031 9.29897 8.9532 8.94897C9.3032 8.59897 9.6365 8.38228 10.1032 8.20068C10.4557 8.06318 10.9851 7.90068 11.9601 7.85588C12.8826 7.81418 13.2401 7.80168 15.1038 7.79958V7.80208ZM21.3389 9.46247C20.6764 9.46247 20.1389 9.99946 20.1389 10.6621C20.1389 11.3245 20.6764 11.862 21.3389 11.862C22.0014 11.862 22.5389 11.3245 22.5389 10.6621C22.5389 9.99956 22.0014 9.46207 21.3389 9.46207V9.46247ZM16.0009 10.8646C13.1649 10.8646 10.8655 13.1639 10.8655 16C10.8655 18.8361 13.1649 21.1343 16.0009 21.1343C18.837 21.1343 21.1356 18.8361 21.1356 16C21.1356 13.164 18.8368 10.8646 16.0007 10.8646H16.0009ZM16.0009 12.6666C17.8418 12.6666 19.3343 14.1589 19.3343 16C19.3343 17.8409 17.8418 19.3334 16.0009 19.3334C14.1599 19.3334 12.6676 17.8409 12.6676 16C12.6676 14.1589 14.1599 12.6666 16.0009 12.6666Z" fill="white"/>
</g>
</g>
</g>
<defs>
<radialGradient id="paint0_radial_52_188" cx="0" cy="0" r="1" gradientUnits="userSpaceOnUse" gradientTransform="translate(8.5 34.4646) rotate(-90) scale(31.7144 29.4969)">
<stop stop-color="#FFDD55"/>
<stop offset="0.1" stop-color="#FFDD55"/>
<stop offset="0.5" stop-color="#FF543E"/>
<stop offset="1" stop-color="#C837AB"/>
</radialGradient>
<radialGradient id="paint1_radial_52_188" cx="0" cy="0" r="1" gradientUnits="userSpaceOnUse" gradientTransform="translate(-5.36012 2.30512) rotate(78.681) scale(14.1765 58.436)">
<stop stop-color="#3771C8"/>
<stop offset="0.128" stop-color="#3771C8"/>
<stop offset="1" stop-color="#6600FF" stop-opacity="0"/>
</radialGradient>
<clipPath id="clip0_52_188">
<rect width="32" height="32" rx="16" fill="white"/>
</clipPath>
</defs>
</svg>
