<svg width="24" height="24" viewBox="0 0 24 24" fill="none" xmlns="http://www.w3.org/2000/svg">
<g id="Icon/24/Map">
<path id="Subtract" d="M12.4001 19.9045L12.1687 19.4613L12.4001 19.9045ZM11.5999 19.9045L11.8313 19.4613L11.5999 19.9045ZM18.5 11.045C18.5 13.3882 17.314 15.2902 15.9009 16.7254C14.4881 18.1602 12.889 19.0852 12.1687 19.4613L12.6316 20.3477C13.397 19.948 15.0978 18.9663 16.6135 17.427C18.1289 15.8879 19.5 13.7481 19.5 11.045H18.5ZM12 4.5C15.5868 4.5 18.5 7.42728 18.5 11.045H19.5C19.5 6.88106 16.1452 3.5 12 3.5V4.5ZM5.5 11.045C5.5 7.42728 8.41317 4.5 12 4.5V3.5C7.85485 3.5 4.5 6.88106 4.5 11.045H5.5ZM11.8313 19.4613C11.111 19.0852 9.5119 18.1602 8.09908 16.7254C6.68597 15.2902 5.5 13.3882 5.5 11.045H4.5C4.5 13.7481 5.87113 15.8879 7.38652 17.427C8.90221 18.9663 10.603 19.948 11.3684 20.3477L11.8313 19.4613ZM12.1687 19.4613C12.0597 19.5183 11.9403 19.5183 11.8313 19.4613L11.3684 20.3477C11.7674 20.5561 12.2326 20.5561 12.6316 20.3477L12.1687 19.4613ZM14.5 11.045C14.5 12.4394 13.3777 13.5643 12 13.5643V14.5643C13.936 14.5643 15.5 12.9857 15.5 11.045H14.5ZM12 8.52574C13.3777 8.52574 14.5 9.65064 14.5 11.045H15.5C15.5 9.10441 13.936 7.52574 12 7.52574V8.52574ZM9.5 11.045C9.5 9.65064 10.6223 8.52574 12 8.52574V7.52574C10.064 7.52574 8.5 9.10441 8.5 11.045H9.5ZM12 13.5643C10.6223 13.5643 9.5 12.4394 9.5 11.045H8.5C8.5 12.9857 10.064 14.5643 12 14.5643V13.5643Z" fill="#C9C9C9"/>
</g>
</svg>
