<svg width="24" height="24" viewBox="0 0 24 24" fill="none" xmlns="http://www.w3.org/2000/svg">
<g id="ph:phone">
<path id="Vector" d="M16.4997 19.6C17.4405 19.6032 18.3503 19.2634 19.0589 18.6444C19.7674 18.0253 20.2261 17.1693 20.3491 16.2365L20.3641 16.1234H20.2611L15.8743 14.1587L15.8166 14.1329L15.7685 14.1739L13.4897 16.1181C13.4704 16.1344 13.4502 16.1497 13.4293 16.1638C13.2279 16.2982 12.9951 16.3779 12.7536 16.3954C12.5122 16.4129 12.2703 16.3675 12.0517 16.2636C10.3159 15.4248 8.58223 13.704 7.74278 11.9873C7.63785 11.7702 7.59078 11.5297 7.6061 11.289C7.62143 11.0483 7.69868 10.8157 7.83035 10.6137L7.83037 10.6137L7.83135 10.6121C7.84448 10.5911 7.85924 10.5712 7.87549 10.5525L7.8755 10.5525L7.87675 10.551L9.81456 8.23161L9.85459 8.1837L9.82912 8.1267L7.87029 3.74263L7.881 3.63413L7.75581 3.65088C6.82433 3.77547 5.97005 4.23486 5.35251 4.94326C4.73499 5.65162 4.39641 6.56054 4.40001 7.50027M16.4997 19.6L16.5 19.5L16.4999 19.6C16.4998 19.6 16.4997 19.6 16.4997 19.6ZM16.4997 19.6C13.2917 19.5964 10.2162 18.3205 7.94785 16.0521C5.67948 13.7838 4.40356 10.7082 4.40001 7.50027M4.40001 7.50027C4.40001 7.50031 4.40001 7.50034 4.40001 7.50038L4.50001 7.49999L4.40001 7.5001C4.40001 7.50016 4.40001 7.50022 4.40001 7.50027ZM20.8063 14.9469L20.8074 14.9473C21.0844 15.0676 21.315 15.2742 21.465 15.5362C21.6149 15.7982 21.6761 16.1016 21.6396 16.4012C21.4755 17.6472 20.8635 18.791 19.9178 19.6189C18.972 20.4469 17.7572 20.9022 16.5002 20.9H16.5C9.11149 20.9 3.10001 14.8885 3.10001 7.49999L3.10001 7.49981C3.09776 6.24282 3.55315 5.02798 4.38112 4.0822C5.209 3.13654 6.35276 2.52454 7.59883 2.36045C7.89851 2.32396 8.20196 2.38531 8.46392 2.53536C8.72601 2.68549 8.93253 2.91636 9.05263 3.19351L9.05262 3.19351L9.05314 3.19467L11.0291 7.59921V7.60957L11.0371 7.62842C11.128 7.84057 11.165 8.07189 11.1448 8.3018C11.1247 8.53157 11.0481 8.7528 10.9219 8.94583C10.9075 8.9674 10.8919 8.98797 10.8745 9.00971L8.92723 11.3253L8.88522 11.3753L8.91404 11.4338C9.62614 12.8809 11.1349 14.3781 12.6004 15.0899L12.6592 15.1185L12.7089 15.0761L14.9903 13.1312C14.9904 13.1312 14.9904 13.1311 14.9905 13.131C15.0099 13.1147 15.0302 13.0996 15.0514 13.0856L15.0517 13.0854C15.2454 12.9562 15.4682 12.8774 15.6999 12.856C15.9312 12.8347 16.1642 12.8712 16.3778 12.9623L16.3887 12.9674L16.3897 12.9678L20.8063 14.9469Z" fill="#C9C9C9" stroke="white" stroke-width="0.2"/>
</g>
</svg>
