<svg width="24" height="24" viewBox="0 0 24 24" fill="none" xmlns="http://www.w3.org/2000/svg">
<g id="ph:user-light">
<path id="Vector" d="M21.4867 19.9687C20.0045 17.4075 17.6776 15.6103 14.9739 14.8481C16.2884 14.1799 17.3396 13.0885 17.9579 11.7498C18.5762 10.411 18.7256 8.90311 18.382 7.4691C18.0385 6.03508 17.222 4.75856 16.0642 3.84537C14.9064 2.93218 13.4747 2.43555 12.0001 2.43555C10.5255 2.43555 9.09392 2.93218 7.93611 3.84537C6.7783 4.75856 5.96179 6.03508 5.61824 7.4691C5.27468 8.90311 5.4241 10.411 6.04241 11.7498C6.66072 13.0885 7.71188 14.1799 9.02639 14.8481C6.32264 15.6094 3.99577 17.4065 2.51358 19.9687C2.47288 20.0328 2.44555 20.1043 2.43324 20.1792C2.42093 20.2541 2.42388 20.3306 2.44193 20.4043C2.45998 20.478 2.49275 20.5473 2.53826 20.608C2.58378 20.6687 2.6411 20.7195 2.70678 20.7575C2.77246 20.7955 2.84514 20.8197 2.92045 20.8289C2.99576 20.838 3.07215 20.8319 3.14501 20.8107C3.21786 20.7896 3.2857 20.7539 3.34442 20.7059C3.40314 20.6579 3.45154 20.5985 3.4867 20.5312C5.28764 17.4197 8.46952 15.5625 12.0001 15.5625C15.5308 15.5625 18.7126 17.4197 20.5136 20.5312C20.5487 20.5985 20.5971 20.6579 20.6559 20.7059C20.7146 20.7539 20.7824 20.7896 20.8553 20.8107C20.9281 20.8319 21.0045 20.838 21.0798 20.8289C21.1551 20.8197 21.2278 20.7955 21.2935 20.7575C21.3592 20.7195 21.4165 20.6687 21.462 20.608C21.5075 20.5473 21.5403 20.478 21.5583 20.4043C21.5764 20.3306 21.5794 20.2541 21.567 20.1792C21.5547 20.1043 21.5274 20.0328 21.4867 19.9687ZM6.56264 8.99998C6.56264 7.92455 6.88155 6.87326 7.47903 5.97907C8.07651 5.08488 8.92573 4.38794 9.9193 3.97639C10.9129 3.56484 12.0062 3.45716 13.0609 3.66696C14.1157 3.87677 15.0846 4.39464 15.845 5.15509C16.6055 5.91554 17.1234 6.88441 17.3332 7.93918C17.543 8.99395 17.4353 10.0873 17.0237 11.0808C16.6122 12.0744 15.9152 12.9236 15.0211 13.5211C14.1269 14.1186 13.0756 14.4375 12.0001 14.4375C10.5586 14.4357 9.17652 13.8623 8.15717 12.843C7.13781 11.8236 6.56438 10.4416 6.56264 8.99998Z" fill="#C9C9C9"/>
</g>
</svg>
